<svg xmlns="http://www.w3.org/2000/svg" width="25" height="24" viewBox="0 0 25 24" fill="none">
  <path opacity="0.4" d="M12.5967 22C18.1197 22 22.5967 17.523 22.5967 12C22.5967 6.477 18.1197 2 12.5967 2C7.07368 2 2.59668 6.477 2.59668 12C2.59668 17.523 7.07368 22 12.5967 22Z" fill="white"/>
  <path d="M16.5967 11.25H13.3467V8C13.3467 7.59 13.0067 7.25 12.5967 7.25C12.1867 7.25 11.8467 7.59 11.8467 8V11.25H8.59668C8.18668 11.25 7.84668 11.59 7.84668 12C7.84668 12.41 8.18668 12.75 8.59668 12.75H11.8467V16C11.8467 16.41 12.1867 16.75 12.5967 16.75C13.0067 16.75 13.3467 16.41 13.3467 16V12.75H16.5967C17.0067 12.75 17.3467 12.41 17.3467 12C17.3467 11.59 17.0067 11.25 16.5967 11.25Z" fill="white"/>
</svg>