<svg width="167" height="167" viewBox="0 0 167 167" fill="none" xmlns="http://www.w3.org/2000/svg">
<path d="M152.202 71.1142C149.017 71.6554 146.774 74.5315 146.991 77.7478C147.099 79.2322 147.146 80.7167 147.146 82.2166C147.146 116.374 120.255 144.239 86.4843 145.8C48.3526 147.563 18.1534 117.364 19.9161 79.2322C21.4779 45.4766 49.3422 18.571 83.4999 18.571C88.7109 18.571 93.7673 19.1895 98.6227 20.3802C101.684 21.1224 104.823 19.4833 105.952 16.5454C107.313 13.0198 105.272 9.09222 101.607 8.19537C95.6693 6.74185 89.4686 5.99963 83.0824 6.03056C41.3169 6.24704 7.43752 40.2037 7.31381 81.9846C7.19011 123.967 41.0076 158.093 82.8968 158.418C125.173 158.758 159.5 124.879 159.701 82.6032C159.717 80.6703 159.655 78.7374 159.516 76.8355C159.253 73.1398 155.851 70.4957 152.202 71.1142Z" fill="#37139D"/>
<path d="M157.718 67.0386C161.413 66.4046 163.733 62.709 162.697 59.1061C156.666 38.1847 141.915 20.959 122.617 11.6193C119.308 10.0112 115.334 11.5729 114.019 15.0057C112.844 18.0365 114.19 21.4847 117.112 22.8918C133.24 30.6852 145.595 45.0812 150.636 62.5698C151.517 65.6469 154.563 67.5798 157.718 67.0386Z" fill="#9B75D5"/>
<path d="M63.8211 89.7393C63.8211 89.656 63.8294 89.5893 63.8461 89.5393C63.8794 89.4893 63.9128 89.4476 63.9461 89.4143L67.2461 84.6893C66.3128 84.6893 65.4461 84.5476 64.6461 84.2643C63.8461 83.9643 63.1544 83.556 62.5711 83.0393C61.9878 82.5226 61.5211 81.8976 61.1711 81.1643C60.8378 80.4143 60.6711 79.5893 60.6711 78.6893C60.6711 77.7726 60.8378 76.9476 61.1711 76.2143C61.5211 75.4643 61.9961 74.831 62.5961 74.3143C63.1961 73.781 63.9044 73.3726 64.7211 73.0893C65.5378 72.806 66.4128 72.6643 67.3461 72.6643C68.2794 72.6643 69.1544 72.806 69.9711 73.0893C70.7878 73.3726 71.4961 73.781 72.0961 74.3143C72.6961 74.831 73.1628 75.4643 73.4961 76.2143C73.8461 76.9476 74.0211 77.7726 74.0211 78.6893C74.0211 79.1726 73.9628 79.6226 73.8461 80.0393C73.7461 80.456 73.6044 80.8476 73.4211 81.2143C73.2544 81.581 73.0628 81.931 72.8461 82.2643C72.6461 82.5976 72.4378 82.9143 72.2211 83.2143L67.5211 89.9143C67.4544 90.0143 67.3628 90.1226 67.2461 90.2393C67.1461 90.356 66.9794 90.4143 66.7461 90.4143H64.4961C64.3128 90.4143 64.1544 90.3476 64.0211 90.2143C63.8878 90.081 63.8211 89.9226 63.8211 89.7393ZM64.0711 78.6893C64.0711 79.6226 64.3794 80.3393 64.9961 80.8393C65.6128 81.3226 66.3961 81.5643 67.3461 81.5643C68.2961 81.5643 69.0794 81.3143 69.6961 80.8143C70.3128 80.3143 70.6211 79.606 70.6211 78.6893C70.6211 77.7726 70.3128 77.0643 69.6961 76.5643C69.0794 76.0476 68.2961 75.7893 67.3461 75.7893C66.3961 75.7893 65.6128 76.0476 64.9961 76.5643C64.3794 77.0643 64.0711 77.7726 64.0711 78.6893ZM89.834 79.4393C89.8507 79.756 89.859 80.106 89.859 80.4893C89.859 80.8726 89.859 81.2643 89.859 81.6643C89.859 82.0643 89.859 82.456 89.859 82.8393C89.859 83.2226 89.8507 83.5726 89.834 83.8893C89.784 84.856 89.634 85.756 89.384 86.5893C89.1507 87.406 88.7673 88.1226 88.234 88.7393C87.7173 89.3393 87.034 89.8143 86.184 90.1643C85.3507 90.4976 84.3257 90.6643 83.109 90.6643C81.8757 90.6643 80.8423 90.4976 80.009 90.1643C79.1757 89.8143 78.4923 89.3393 77.959 88.7393C77.4423 88.1226 77.059 87.406 76.809 86.5893C76.5757 85.756 76.434 84.856 76.384 83.8893C76.3507 83.256 76.334 82.5393 76.334 81.7393C76.334 80.9226 76.3507 80.1976 76.384 79.5643C76.434 78.5976 76.5757 77.6976 76.809 76.8643C77.059 76.0143 77.4423 75.281 77.959 74.6643C78.4923 74.0476 79.1757 73.5643 80.009 73.2143C80.8423 72.8476 81.8757 72.6643 83.109 72.6643C84.3257 72.6643 85.3507 72.8393 86.184 73.1893C87.034 73.5226 87.7173 73.9976 88.234 74.6143C88.7673 75.2143 89.1507 75.931 89.384 76.7643C89.634 77.581 89.784 78.4726 89.834 79.4393ZM79.759 83.7643C79.8423 84.9643 80.1257 85.8976 80.609 86.5643C81.109 87.2143 81.9423 87.5393 83.109 87.5393C84.2757 87.5393 85.1007 87.2143 85.584 86.5643C86.084 85.8976 86.3757 84.9643 86.459 83.7643C86.4923 83.131 86.509 82.431 86.509 81.6643C86.509 80.8976 86.4923 80.1976 86.459 79.5643C86.3757 78.3643 86.084 77.4393 85.584 76.7893C85.1007 76.1226 84.2757 75.7893 83.109 75.7893C81.9423 75.7893 81.109 76.1226 80.609 76.7893C80.1257 77.4393 79.8423 78.3643 79.759 79.5643C79.7257 80.1976 79.709 80.8976 79.709 81.6643C79.709 82.431 79.7257 83.131 79.759 83.7643ZM96.0426 72.7893C96.6592 72.7893 97.1926 72.881 97.6426 73.0643C98.0926 73.2476 98.4676 73.4893 98.7676 73.7893C99.0842 74.0726 99.3176 74.406 99.4676 74.7893C99.6342 75.156 99.7342 75.531 99.7676 75.9143C99.8009 76.3476 99.8176 76.8143 99.8176 77.3143C99.8176 77.7976 99.8009 78.256 99.7676 78.6893C99.7342 79.0726 99.6342 79.456 99.4676 79.8393C99.3176 80.206 99.0842 80.5393 98.7676 80.8393C98.4676 81.1226 98.0926 81.356 97.6426 81.5393C97.1926 81.706 96.6592 81.7893 96.0426 81.7893C95.4259 81.7893 94.8926 81.706 94.4426 81.5393C93.9926 81.356 93.6092 81.1226 93.2926 80.8393C92.9926 80.5393 92.7592 80.206 92.5926 79.8393C92.4426 79.456 92.3509 79.0726 92.3176 78.6893C92.2842 78.256 92.2676 77.7976 92.2676 77.3143C92.2676 76.8143 92.2842 76.3476 92.3176 75.9143C92.3509 75.531 92.4426 75.156 92.5926 74.7893C92.7592 74.406 92.9926 74.0726 93.2926 73.7893C93.6092 73.4893 93.9926 73.2476 94.4426 73.0643C94.8926 72.881 95.4259 72.7893 96.0426 72.7893ZM97.3676 78.4393C97.3842 78.3393 97.3926 78.181 97.3926 77.9643C97.3926 77.7476 97.3926 77.5226 97.3926 77.2893C97.3926 77.056 97.3926 76.831 97.3926 76.6143C97.3926 76.3976 97.3842 76.2393 97.3676 76.1393C97.3342 75.806 97.2259 75.5226 97.0426 75.2893C96.8592 75.056 96.5259 74.9393 96.0426 74.9393C95.5592 74.9393 95.2259 75.056 95.0426 75.2893C94.8592 75.5226 94.7509 75.806 94.7176 76.1393C94.7009 76.2393 94.6842 76.3976 94.6676 76.6143C94.6676 76.831 94.6676 77.056 94.6676 77.2893C94.6676 77.5226 94.6676 77.7476 94.6676 77.9643C94.6842 78.181 94.7009 78.3393 94.7176 78.4393C94.7509 78.7726 94.8592 79.056 95.0426 79.2893C95.2259 79.5226 95.5592 79.6393 96.0426 79.6393C96.5259 79.6393 96.8592 79.5226 97.0426 79.2893C97.2259 79.056 97.3342 78.7726 97.3676 78.4393ZM106.868 81.5643C107.484 81.5643 108.018 81.656 108.468 81.8393C108.918 82.0226 109.293 82.2643 109.593 82.5643C109.909 82.8476 110.143 83.181 110.293 83.5643C110.459 83.931 110.559 84.306 110.593 84.6893C110.626 85.1226 110.643 85.5893 110.643 86.0893C110.643 86.5726 110.626 87.031 110.593 87.4643C110.559 87.8476 110.459 88.231 110.293 88.6143C110.143 88.981 109.909 89.3143 109.593 89.6143C109.293 89.8976 108.918 90.131 108.468 90.3143C108.018 90.481 107.484 90.5643 106.868 90.5643C106.251 90.5643 105.718 90.481 105.268 90.3143C104.818 90.131 104.434 89.8976 104.118 89.6143C103.818 89.3143 103.584 88.981 103.418 88.6143C103.268 88.231 103.176 87.8476 103.143 87.4643C103.109 87.031 103.093 86.5726 103.093 86.0893C103.093 85.5893 103.109 85.1226 103.143 84.6893C103.176 84.306 103.268 83.931 103.418 83.5643C103.584 83.181 103.818 82.8476 104.118 82.5643C104.434 82.2643 104.818 82.0226 105.268 81.8393C105.718 81.656 106.251 81.5643 106.868 81.5643ZM108.193 87.2143C108.209 87.1143 108.218 86.956 108.218 86.7393C108.218 86.5226 108.218 86.2976 108.218 86.0643C108.218 85.831 108.218 85.606 108.218 85.3893C108.218 85.1726 108.209 85.0143 108.193 84.9143C108.159 84.581 108.051 84.2976 107.868 84.0643C107.684 83.831 107.351 83.7143 106.868 83.7143C106.384 83.7143 106.051 83.831 105.868 84.0643C105.684 84.2976 105.576 84.581 105.543 84.9143C105.526 85.0143 105.509 85.1726 105.493 85.3893C105.493 85.606 105.493 85.831 105.493 86.0643C105.493 86.2976 105.493 86.5226 105.493 86.7393C105.509 86.956 105.526 87.1143 105.543 87.2143C105.576 87.5476 105.684 87.831 105.868 88.0643C106.051 88.2976 106.384 88.4143 106.868 88.4143C107.351 88.4143 107.684 88.2976 107.868 88.0643C108.051 87.831 108.159 87.5476 108.193 87.2143ZM106.068 73.3893C106.184 73.2393 106.301 73.1226 106.418 73.0393C106.551 72.956 106.734 72.9143 106.968 72.9143H108.468C108.651 72.9143 108.793 72.9643 108.893 73.0643C109.009 73.1476 109.068 73.2643 109.068 73.4143C109.068 73.4476 109.059 73.4893 109.043 73.5393C109.026 73.5893 109.001 73.6393 108.968 73.6893L96.6176 89.9393C96.5009 90.0893 96.3759 90.206 96.2426 90.2893C96.1259 90.3726 95.9509 90.4143 95.7176 90.4143H94.2176C94.0342 90.4143 93.8842 90.3726 93.7676 90.2893C93.6676 90.1893 93.6176 90.0643 93.6176 89.9143C93.6176 89.881 93.6259 89.8393 93.6426 89.7893C93.6592 89.7393 93.6842 89.6893 93.7176 89.6393L106.068 73.3893Z" fill="#37139D"/>
</svg>
