<svg xmlns="http://www.w3.org/2000/svg" width="25" height="24" viewBox="0 0 25 24" fill="none">
  <path d="M21.7386 5.23C20.1286 5.07 18.5186 4.95 16.8986 4.86V4.85L16.6786 3.55C16.5286 2.63 16.3086 1.25 13.9686 1.25H11.3486C9.01861 1.25 8.79861 2.57 8.63861 3.54L8.42861 4.82C7.49861 4.88 6.56861 4.94 5.63861 5.03L3.59861 5.23C3.17861 5.27 2.87861 5.64 2.91861 6.05C2.95861 6.46 3.31861 6.76 3.73861 6.72L5.77861 6.52C11.0186 6 16.2986 6.2 21.5986 6.73H21.6786C22.0586 6.73 22.3886 6.44 22.4286 6.05C22.4437 5.85024 22.3799 5.65253 22.2509 5.49925C22.1219 5.34596 21.938 5.24931 21.7386 5.23Z" fill="white"/>
  <path opacity="0.399" d="M19.8987 8.14C19.6587 7.89 19.3287 7.75 18.9887 7.75H6.34869C6.00869 7.75 5.66869 7.89 5.43869 8.14C5.20869 8.39 5.07869 8.73 5.09869 9.08L5.7187 19.34C5.8287 20.86 5.9687 22.76 9.4587 22.76H15.8787C19.3687 22.76 19.5087 20.87 19.6187 19.34L20.2387 9.09C20.2587 8.73 20.1287 8.39 19.8987 8.14Z" fill="white"/>
  <path fill-rule="evenodd" clip-rule="evenodd" d="M10.2485 17C10.2485 16.8011 10.3275 16.6103 10.4681 16.4697C10.6088 16.329 10.7995 16.25 10.9985 16.25H14.3285C14.5274 16.25 14.7181 16.329 14.8588 16.4697C14.9994 16.6103 15.0785 16.8011 15.0785 17C15.0785 17.1989 14.9994 17.3897 14.8588 17.5303C14.7181 17.671 14.5274 17.75 14.3285 17.75H10.9985C10.7995 17.75 10.6088 17.671 10.4681 17.5303C10.3275 17.3897 10.2485 17.1989 10.2485 17ZM9.41846 13C9.41846 12.8011 9.49748 12.6103 9.63813 12.4697C9.77878 12.329 9.96954 12.25 10.1685 12.25H15.1685C15.3674 12.25 15.5581 12.329 15.6988 12.4697C15.8394 12.6103 15.9185 12.8011 15.9185 13C15.9185 13.1989 15.8394 13.3897 15.6988 13.5303C15.5581 13.671 15.3674 13.75 15.1685 13.75H10.1685C9.96954 13.75 9.77878 13.671 9.63813 13.5303C9.49748 13.3897 9.41846 13.1989 9.41846 13Z" fill="white"/>
</svg>