<svg width="25" height="24" viewBox="0 0 25 24" fill="none" xmlns="http://www.w3.org/2000/svg">
<path opacity="0.4" d="M11.525 20.02C13.9146 20.02 16.2063 19.0707 17.896 17.381C19.5858 15.6913 20.535 13.3996 20.535 11.01C20.535 8.6204 19.5858 6.32867 17.896 4.63897C16.2063 2.94927 13.9146 2 11.525 2C9.13541 2 6.84369 2.94927 5.15398 4.63897C3.46428 6.32867 2.51501 8.6204 2.51501 11.01C2.51501 13.3996 3.46428 15.6913 5.15398 17.381C6.84369 19.0707 9.13541 20.02 11.525 20.02Z" fill="#6C3FEE"/>
<path d="M22.5051 18.95C22.1751 18.34 21.4751 18 20.5351 18C19.8251 18 19.2151 18.29 18.8551 18.79C18.4951 19.29 18.4151 19.96 18.6351 20.63C19.0651 21.93 19.8151 22.22 20.2251 22.27C20.2851 22.28 20.3451 22.28 20.4151 22.28C20.8551 22.28 21.5351 22.09 22.1951 21.1C22.7251 20.33 22.8251 19.56 22.5051 18.95Z" fill="#6C3FEE"/>
</svg>
