<svg width="24" height="24" viewBox="0 0 24 24" fill="none" xmlns="http://www.w3.org/2000/svg">
<g id="Iconsax/Bulk/tasksquare">
<path id="Vector" opacity="0.7" d="M14.19 0.969002H5.81C2.17 0.969002 0 3.139 0 6.779V15.159C0 18.799 2.17 20.969 5.81 20.969H14.19C17.83 20.969 20 18.799 20 15.159V6.779C20 3.139 17.83 0.969002 14.19 0.969002Z" fill="#CACACA"/>
<path id="Vector_2" d="M16.3096 7.84C16.3096 8.25 15.9796 8.59 15.5596 8.59H10.3096C9.89957 8.59 9.55957 8.25 9.55957 7.84C9.55957 7.43 9.89957 7.09 10.3096 7.09H15.5596C15.9796 7.09 16.3096 7.43 16.3096 7.84ZM7.96957 6.867L5.71957 9.117C5.56957 9.267 5.37957 9.337 5.18957 9.337C4.99957 9.337 4.79957 9.267 4.65957 9.117L3.90957 8.367C3.60957 8.077 3.60957 7.597 3.90957 7.307C4.19957 7.017 4.66957 7.017 4.96957 7.307L5.18957 7.527L6.90957 5.807C7.19957 5.517 7.66957 5.517 7.96957 5.807C8.25957 6.097 8.25957 6.577 7.96957 6.867ZM16.3096 14.84C16.3096 15.25 15.9796 15.59 15.5596 15.59H10.3096C9.89957 15.59 9.55957 15.25 9.55957 14.84C9.55957 14.43 9.89957 14.09 10.3096 14.09H15.5596C15.9796 14.09 16.3096 14.43 16.3096 14.84ZM7.96957 13.867L5.71957 16.117C5.56957 16.267 5.37957 16.337 5.18957 16.337C4.99957 16.337 4.79957 16.267 4.65957 16.117L3.90957 15.367C3.60957 15.077 3.60957 14.597 3.90957 14.307C4.19957 14.017 4.66957 14.017 4.96957 14.307L5.18957 14.527L6.90957 12.807C7.19957 12.517 7.66957 12.517 7.96957 12.807C8.25957 13.097 8.25957 13.577 7.96957 13.867Z" fill="black"/>
</g>
</svg>
