<svg width="24" height="24" viewBox="0 0 24 24" fill="none" xmlns="http://www.w3.org/2000/svg">
<path d="M21.0702 5.23C19.4602 5.07 17.8502 4.95 16.2302 4.86V4.85L16.0102 3.55C15.8602 2.63 15.6402 1.25 13.3002 1.25H10.6802C8.35016 1.25 8.13016 2.57 7.97016 3.54L7.76016 4.82C6.83016 4.88 5.90016 4.94 4.97016 5.03L2.93016 5.23C2.51016 5.27 2.21016 5.64 2.25016 6.05C2.29016 6.46 2.65016 6.76 3.07016 6.72L5.11016 6.52C10.3502 6 15.6302 6.2 20.9302 6.73H21.0102C21.3902 6.73 21.7202 6.44 21.7602 6.05C21.7752 5.85024 21.7114 5.65253 21.5824 5.49925C21.4535 5.34596 21.2696 5.24931 21.0702 5.23ZM19.2302 8.14C18.9902 7.89 18.6602 7.75 18.3202 7.75H5.68016C5.34016 7.75 5.00016 7.89 4.77016 8.14C4.54016 8.39 4.41016 8.73 4.43016 9.08L5.05016 19.34C5.16016 20.86 5.30016 22.76 8.79016 22.76H15.2102C18.7002 22.76 18.8402 20.87 18.9502 19.34L19.5702 9.09C19.5902 8.73 19.4602 8.39 19.2302 8.14ZM13.6602 17.75H10.3302C9.92016 17.75 9.58016 17.41 9.58016 17C9.58016 16.59 9.92016 16.25 10.3302 16.25H13.6602C14.0702 16.25 14.4102 16.59 14.4102 17C14.4102 17.41 14.0702 17.75 13.6602 17.75ZM14.5002 13.75H9.50016C9.09016 13.75 8.75016 13.41 8.75016 13C8.75016 12.59 9.09016 12.25 9.50016 12.25H14.5002C14.9102 12.25 15.2502 12.59 15.2502 13C15.2502 13.41 14.9102 13.75 14.5002 13.75Z" fill="#B53114"/>
</svg>
