<svg width="24" height="24" viewBox="0 0 24 24" fill="none" xmlns="http://www.w3.org/2000/svg">
<path opacity="0.4" d="M22 9V15C22 18.5 20 20 17 20H9.74C9.91 19.53 10 19.03 10 18.5C10.0012 17.5688 9.71312 16.6601 9.1756 15.8997C8.63808 15.1392 7.87764 14.5645 6.99937 14.2549C6.12109 13.9453 5.16834 13.9162 4.27278 14.1714C3.37721 14.4267 2.58304 14.9539 2 15.68V9C2 5.5 4 4 7 4H17C20 4 22 5.5 22 9Z" fill="black"/>
<path d="M12 14.5C12.663 14.5 13.2989 14.2366 13.7678 13.7678C14.2366 13.2989 14.5 12.663 14.5 12C14.5 11.337 14.2366 10.7011 13.7678 10.2322C13.2989 9.76339 12.663 9.5 12 9.5C11.337 9.5 10.7011 9.76339 10.2322 10.2322C9.76339 10.7011 9.5 11.337 9.5 12C9.5 12.663 9.76339 13.2989 10.2322 13.7678C10.7011 14.2366 11.337 14.5 12 14.5ZM18.5 14.75C18.09 14.75 17.75 14.41 17.75 14V10C17.75 9.59 18.09 9.25 18.5 9.25C18.91 9.25 19.25 9.59 19.25 10V14C19.25 14.41 18.91 14.75 18.5 14.75ZM5.5 14C4.09 14 2.82 14.66 2 15.68C1.37 16.45 1 17.43 1 18.5C1 19.6935 1.47411 20.8381 2.31802 21.682C3.16193 22.5259 4.30653 23 5.5 23C7.46 23 9.13 21.75 9.74 20C9.91 19.53 10 19.03 10 18.5C10 17.9091 9.8836 17.3239 9.65746 16.7779C9.43131 16.232 9.09984 15.7359 8.68198 15.318C8.26412 14.9002 7.76804 14.5687 7.22208 14.3425C6.67611 14.1164 6.09095 14 5.5 14ZM8.16 20.46C8.13 20.52 8.09 20.59 8.04 20.64L7.23 21.44C7.13 21.55 6.99 21.6 6.85 21.6C6.7 21.6 6.56 21.55 6.46 21.44C6.37682 21.358 6.32294 21.2509 6.30668 21.1352C6.29041 21.0196 6.31266 20.9018 6.37 20.8H4.11C3.39 20.8 2.8 20.21 2.8 19.48V19.37C2.8 19.06 3.05 18.82 3.35 18.82C3.65 18.82 3.9 19.06 3.9 19.37V19.48C3.9 19.6 3.99 19.7 4.11 19.7H6.37C6.31269 19.5965 6.29048 19.4772 6.30671 19.36C6.32293 19.2428 6.37672 19.134 6.46 19.05C6.56281 18.9492 6.70104 18.8928 6.845 18.8928C6.98896 18.8928 7.12719 18.9492 7.23 19.05L8.04 19.86C8.09 19.91 8.13 19.97 8.16 20.04C8.21 20.17 8.21 20.32 8.16 20.46ZM8.2 17.63C8.2 17.94 7.95 18.18 7.65 18.18C7.35 18.18 7.1 17.94 7.1 17.63V17.52C7.1 17.4 7.01 17.3 6.89 17.3H4.63C4.67569 17.3833 4.69889 17.4771 4.6973 17.5721C4.69571 17.6671 4.6694 17.7601 4.62095 17.8419C4.57251 17.9236 4.5036 17.9913 4.42102 18.0384C4.33844 18.0854 4.24503 18.1101 4.15 18.11C4.01 18.11 3.87 18.05 3.77 17.95L2.96 17.14C2.90882 17.0883 2.86808 17.0271 2.84 16.96C2.79002 16.8245 2.79002 16.6755 2.84 16.54C2.87 16.48 2.91 16.41 2.96 16.36L3.77 15.56C3.98 15.34 4.33 15.34 4.54 15.56C4.72 15.73 4.74 16 4.63 16.2H6.89C7.61 16.2 8.2 16.79 8.2 17.52V17.63Z" fill="black"/>
</svg>
